<svg width="73" height="83" viewBox="0 0 73 83" fill="none" xmlns="http://www.w3.org/2000/svg">
<g filter="url(#filter0_d_1051_5943)">
<path d="M16.0781 75.5312L14.253 74.7134C13.9757 75.3322 14.0308 76.0494 14.3995 76.6185C14.7681 77.1877 15.4 77.5312 16.0781 77.5312V75.5312ZM45.1875 75.5312V77.5312C45.996 77.5312 46.7251 77.0444 47.0349 76.2976L45.1875 75.5312ZM65.3906 26.8281L67.238 27.5945C67.3388 27.3515 67.3906 27.0911 67.3906 26.8281H65.3906ZM65.3906 7.28125H67.3906C67.3906 6.17668 66.4952 5.28125 65.3906 5.28125V7.28125ZM7.5 7.28125V5.28125C6.39543 5.28125 5.5 6.17668 5.5 7.28125H7.5ZM7.5 28.5625H5.5C5.5 29.6671 6.39543 30.5625 7.5 30.5625V28.5625ZM37.125 28.5625L38.9501 29.3804C39.2274 28.7615 39.1723 28.0444 38.8036 27.4752C38.435 26.9061 37.8031 26.5625 37.125 26.5625V28.5625ZM16.0781 77.5312H45.1875V73.5312H16.0781V77.5312ZM47.0349 76.2976L67.238 27.5945L63.5433 26.0618L43.3401 74.7649L47.0349 76.2976ZM67.3906 26.8281V7.28125H63.3906V26.8281H67.3906ZM65.3906 5.28125H7.5V9.28125H65.3906V5.28125ZM5.5 7.28125V28.5625H9.5V7.28125H5.5ZM7.5 30.5625H37.125V26.5625H7.5V30.5625ZM35.2999 27.7446L14.253 74.7134L17.9033 76.3491L38.9501 29.3804L35.2999 27.7446Z" fill="#4C6AFD"/>
</g>
<defs>
<filter id="filter0_d_1051_5943" x="0.5" y="0.28125" width="71.8906" height="82.25" filterUnits="userSpaceOnUse" color-interpolation-filters="sRGB">
<feFlood flood-opacity="0" result="BackgroundImageFix"/>
<feColorMatrix in="SourceAlpha" type="matrix" values="0 0 0 0 0 0 0 0 0 0 0 0 0 0 0 0 0 0 127 0" result="hardAlpha"/>
<feOffset/>
<feGaussianBlur stdDeviation="3.5"/>
<feComposite in2="hardAlpha" operator="out"/>
<feColorMatrix type="matrix" values="0 0 0 0 0.298039 0 0 0 0 0.415686 0 0 0 0 0.992157 0 0 0 1 0"/>
<feBlend mode="normal" in2="BackgroundImageFix" result="effect1_dropShadow_1051_5943"/>
<feBlend mode="normal" in="SourceGraphic" in2="effect1_dropShadow_1051_5943" result="shape"/>
</filter>
</defs>
</svg>
