<svg width="71" height="65" viewBox="0 0 71 65" fill="none" xmlns="http://www.w3.org/2000/svg">
<path d="M49.5003 30.6531C49.0699 31.0814 49.0618 31.6715 49.4811 32.0636C49.7968 32.3588 49.8076 32.3592 56.45 32.3592C62.9206 32.3592 63.1102 32.3518 63.376 32.0872C63.7829 31.6822 63.7404 30.9543 63.2892 30.6011C62.9364 30.3248 62.7987 30.3192 56.3825 30.3192H49.8357L49.5003 30.6531Z" fill="#64FDFF"/>
<path fill-rule="evenodd" clip-rule="evenodd" d="M6.34124 0.197194C3.59138 0.948754 1.2997 3.351 0.715404 6.09475C0.422436 7.47058 0.431044 48.4441 0.724559 49.8358C1.18533 52.0196 2.74432 54.1091 4.62907 55.069C5.45277 55.4884 5.56687 55.6016 5.99197 56.4214C6.60428 57.6015 8.09836 59.0871 9.20683 59.6177C9.96494 59.9807 10.0779 60.0934 10.5007 60.9097C11.1182 62.1021 12.6062 63.5686 13.7835 64.1455C13.8967 64.201 13.9964 64.2529 14.0896 64.3014C14.1934 64.3555 14.2892 64.4054 14.3869 64.4514C15.5579 65.0037 16.9896 65.0034 35.5926 64.9994C36.987 64.9991 38.4779 64.9988 40.0725 64.9987C60.4224 64.9973 63.9618 64.9686 64.5997 64.7997C67.3947 64.0593 69.6941 61.6717 70.2852 58.8958C70.5774 57.5243 70.5687 24.431 70.2761 23.0429C69.7769 20.6766 67.9371 18.3682 65.9039 17.5572C65.602 17.4368 65.3702 17.1526 65.0239 16.4783C64.4103 15.2829 62.9229 13.7994 61.7906 13.2535C61.0294 12.8864 60.9172 12.7739 60.5014 11.9629C59.9086 10.8066 58.4062 9.32472 57.2181 8.72454C57.1331 8.68162 57.0535 8.64077 56.9777 8.60186C56.755 8.48756 56.5652 8.39013 56.3693 8.30694C55.2379 7.82643 53.9047 7.82103 44.8709 7.78444C44.3385 7.78228 43.7793 7.78001 43.1918 7.77754L31.548 7.72844L28.5024 4.70125C25.7457 1.96104 25.3504 1.61953 24.3346 1.09985C22.1868 0.00107419 22.07 -0.0114371 14.0593 0.00229938C8.6127 0.0118197 6.85776 0.0560209 6.34124 0.197194ZM21.3575 2.23522C22.5242 2.47948 23.7113 3.06321 24.6847 3.87149L25.4156 4.47834H18.5985C11.0895 4.47834 10.9644 4.48976 9.26436 5.33054C8.00408 5.95372 6.58255 7.39319 5.93595 8.70073C5.89083 8.79199 5.84796 8.87613 5.80723 8.95608C5.73622 9.09546 5.67171 9.22209 5.6131 9.3514C5.03113 10.6354 5.03111 12.1831 5.03083 29.099C5.03082 30.0768 5.0308 31.1059 5.03067 32.1892C5.02944 43.5032 4.97929 52.7599 4.91944 52.7599C4.77719 52.7599 3.91783 51.8532 3.56597 51.3319C3.41456 51.1075 3.1589 50.5697 2.99793 50.1367L2.70537 49.3496V28.0263C2.70537 8.53399 2.72478 6.6453 2.93179 6.0326C3.59343 4.07427 5.28647 2.55823 7.23873 2.17579C7.56367 2.11214 10.6581 2.05447 14.1153 2.04753C19.1634 2.03747 20.5893 2.07446 21.3575 2.23522ZM25.6871 6.71425C27.0083 6.94873 28.3188 7.58454 29.087 8.36358L29.6814 8.96649L23.0598 8.96853C17.6414 8.97016 16.2795 9.00783 15.5641 9.17552C13.4508 9.6714 11.4265 11.2595 10.4567 13.1826C10.4107 13.274 10.3669 13.3581 10.3254 13.438C10.2536 13.5759 10.1884 13.7013 10.1292 13.8294C9.54038 15.1031 9.54036 16.649 9.54013 33.5634C9.54012 34.5483 9.5401 35.5853 9.53997 36.6774C9.53874 48.2972 9.48573 57.2481 9.41836 57.2481C9.15053 57.2481 8.11968 55.9457 7.71548 55.0965L7.283 54.188V32.4953V10.8025L7.70797 9.91852C8.51609 8.23791 9.91302 7.0933 11.6014 6.72881C12.854 6.45829 24.1794 6.4466 25.6871 6.71425ZM54.7948 10.0714C55.193 10.1556 55.8191 10.375 56.1861 10.559C56.8454 10.8895 58.1835 12.0218 58.1835 12.2492C58.1835 12.3141 53.2858 12.3666 47.235 12.3666H36.2867L35.4261 11.5654C34.9528 11.1247 34.3148 10.6238 34.0081 10.4523C33.7015 10.2808 33.4506 10.0906 33.4506 10.0295C33.4506 9.85079 53.9403 9.89104 54.7948 10.0714ZM31.0884 11.3891C32.9106 12.0345 33.693 12.6583 36.6269 15.8047C37.8979 17.1677 39.102 18.4202 39.3029 18.5881L39.668 18.8934L51.2145 18.8949C58.0528 18.8958 63.0926 18.9504 63.574 19.0289C65.3706 19.3217 66.8792 20.4512 67.7123 22.1276C68.1921 23.093 68.2301 23.2599 68.2743 24.5946L68.3219 26.0261L67.7051 25.4603C67.0019 24.8152 65.8519 24.2005 64.667 23.8365C63.8917 23.5985 62.7552 23.587 40.0096 23.587H16.165L15.2084 23.8873C14.136 24.224 12.836 24.9539 12.1681 25.5945L11.724 26.0204L11.7255 20.9275C11.727 15.5558 11.7545 15.2723 12.3914 14.0297C13.0785 12.6888 14.867 11.4225 16.4676 11.1434C16.8273 11.0807 20.073 11.0426 23.6805 11.0588C30.0617 11.0876 30.2624 11.0966 31.0884 11.3891ZM59.457 14.61C59.8885 14.7219 60.4734 14.9311 60.7569 15.0751C61.3224 15.3622 62.6928 16.5347 62.6928 16.7314C62.6928 16.8041 58.1544 16.8547 51.6138 16.8547H40.5349L39.4865 15.7493C38.9099 15.1414 38.4177 14.5905 38.3927 14.5253C38.367 14.4585 42.7858 14.4067 48.5099 14.4067C57.0883 14.4067 58.795 14.4384 59.457 14.61ZM64.0796 25.8924C65.9404 26.3748 67.5325 27.8944 68.0885 29.7186C68.2634 30.2924 68.2925 32.3665 68.2937 44.3374C68.2938 45.1558 68.2941 45.9281 68.2943 46.6572C68.2975 57.5777 68.2979 58.8034 67.774 59.7341C67.7077 59.8517 67.6331 59.9647 67.549 60.092C67.5046 60.1591 67.4576 60.2303 67.4079 60.3082C66.5624 61.6312 65.2263 62.5265 63.6548 62.8232C62.6537 63.0122 17.3632 63.0114 16.3544 62.8223C14.2238 62.4232 12.4504 60.754 11.877 58.6081C11.7539 58.1472 11.7232 54.5378 11.7529 43.9876L11.7923 29.9792L12.2275 29.0648C12.9796 27.4847 14.3243 26.3371 15.9452 25.8921C16.4422 25.7558 21.4989 25.7168 39.9468 25.7071C59.9551 25.6968 63.4281 25.7235 64.0796 25.8924Z" fill="white"/>
<path d="M49.5003 35.1412C48.9218 35.7169 49.1174 36.5451 49.9023 36.8421C50.4318 37.0424 62.3688 37.0343 62.9486 36.8331C63.7329 36.561 63.9234 35.5857 63.2892 35.0893C62.9364 34.8129 62.7987 34.8073 56.3825 34.8073H49.8357L49.5003 35.1412Z" fill="#64FDFF"/>
</svg>
