<svg width="84" height="65" viewBox="0 0 84 65" fill="none" xmlns="http://www.w3.org/2000/svg">
<path fill-rule="evenodd" clip-rule="evenodd" d="M55.8122 3.82107C56.6873 2.07373 58.3272 0.779152 60.3613 0.229609C64.1626 -0.797593 68.2249 1.73073 69.052 5.63836C69.1524 6.11244 69.2344 7.52118 69.2344 8.76908V11.038H75.9692H82.7042L83.102 11.4373L83.5 11.8364V32.5058V53.1752L83.102 53.5743L82.7042 53.9736H75.0703H67.4364L67.0386 53.5743C66.6466 53.1812 66.6406 53.1326 66.6406 50.3512C66.6406 46.7835 66.48 46.1474 65.2732 44.9368C63.4383 43.0959 60.7648 43.0959 58.9299 44.9368C57.7232 46.1474 57.5625 46.7835 57.5625 50.3512C57.5625 53.1326 57.5565 53.1812 57.1645 53.5743L56.7667 53.9736H42.8989H29.0312V56.2977C29.0312 57.8329 28.9492 58.9377 28.7894 59.5531C28.0472 62.4116 25.8983 64.4109 23.0389 64.9028C19.3788 65.5325 15.7229 63.034 14.948 59.3732C14.8477 58.8992 14.7656 57.4904 14.7656 56.2425V53.9736H8.03079H1.29579L0.897979 53.5743L0.5 53.1752V32.5058V11.8364L0.897979 11.4373L1.29579 11.038H8.92969H16.5636L16.9614 11.4373C17.3534 11.8304 17.3594 11.879 17.3594 14.6604C17.3594 18.2281 17.52 18.8641 18.7268 20.0748C20.5617 21.9157 23.2352 21.9157 25.0701 20.0748C26.2768 18.8641 26.4375 18.2281 26.4375 14.6604C26.4375 11.879 26.4435 11.8304 26.8355 11.4373L27.2333 11.038H41.1011H54.9688V8.76908C54.9688 6.16643 55.1396 5.16363 55.8122 3.82107ZM65.2732 3.95281C64.6376 3.31512 64.198 3.02986 63.555 2.83843C61.7331 2.29556 60.2185 2.66002 58.932 3.95069C57.7005 5.18623 57.5625 5.7644 57.5625 9.69252C57.5625 12.8193 57.5597 12.8445 57.1645 13.2409L56.7667 13.6402H50.0317H43.2969H40.7031H34.8672H29.0312V15.6389C29.0312 18.7031 28.4716 20.3661 26.9154 21.9275C25.8852 22.9611 24.5152 23.6648 23.0389 23.9188C19.3788 24.5486 15.7229 22.05 14.948 18.3893C14.8477 17.9152 14.7656 16.6528 14.7656 15.5838V13.6402H8.92969H3.09375V32.5058V51.3714H9.82858H16.5636L16.9614 51.7707C17.3566 52.167 17.3594 52.1923 17.3594 55.3191C17.3594 59.2457 17.4975 59.8257 18.7268 61.0588C20.5617 62.8997 23.2352 62.8997 25.0701 61.0588C26.2994 59.8257 26.4375 59.2457 26.4375 55.3191C26.4375 52.1923 26.4403 52.167 26.8355 51.7707L27.2333 51.3714H33.9683H40.7031H43.2969H49.1328H54.9688V49.4278C54.9688 47.1473 55.1578 46.1117 55.8122 44.8051C57.1384 42.1572 60.2864 40.5844 63.242 41.0928C66.1314 41.5899 68.4548 43.8013 69.052 46.6223C69.1524 47.0964 69.2344 48.3588 69.2344 49.4278V51.3714H75.0703H80.9062V32.5058V13.6402H74.1714H67.4364L67.0386 13.2409C66.6434 12.8445 66.6406 12.8193 66.6406 9.69252C66.6406 5.76586 66.5025 5.18591 65.2732 3.95281Z" fill="#6378EB"/>
<path d="M43.2969 51.3714V44.6148V37.8579L42.8989 37.4588C42.5071 37.0656 42.4586 37.0596 39.6862 37.0596C36.13 37.0596 35.496 36.8984 34.2893 35.6878C32.4544 33.8469 32.4544 31.1647 34.2893 29.3238C35.496 28.1132 36.13 27.952 39.6862 27.952C42.4586 27.952 42.5071 27.946 42.8989 27.5528L43.2969 27.1537V20.3968V13.6402H40.7031V19.495V25.3499H38.7108C35.6842 25.3499 33.9467 25.9326 32.427 27.4573C29.6849 30.2083 29.692 34.7794 32.4425 37.539C33.9989 39.1003 35.6565 39.6617 38.7108 39.6617H40.7031V45.5166V51.3714H43.2969Z" fill="#64FDFF"/>
</svg>
