<svg width="66" height="65" viewBox="0 0 66 65" fill="none" xmlns="http://www.w3.org/2000/svg">
<path fill-rule="evenodd" clip-rule="evenodd" d="M22.6307 4.74933C22.6973 4.51616 23.6361 3.61202 25.2838 2.19423C27.8313 0.00228977 27.8346 0 28.5011 0H29.1683L31.7919 2.26584C34.6117 4.70099 34.7182 4.85058 34.1085 5.5161C33.8792 5.76643 33.6677 5.85127 33.2724 5.85127C32.8007 5.85127 32.5772 5.71084 31.2096 4.55509L29.6759 3.2589L29.6777 9.10254C29.6796 15.3888 29.7024 15.6131 30.4766 16.9647C31.3093 18.4183 33.1276 19.7366 34.9759 20.227C35.8582 20.4609 36.361 20.4795 41.8368 20.4795H47.7458V17.6234C47.7458 15.7716 47.8046 14.6564 47.9132 14.452C48.1602 13.9863 48.8646 13.7682 49.3562 14.0051C50.0549 14.342 50.111 14.6108 50.1134 17.6314L50.1156 20.4437L53.6333 20.5212C55.5681 20.5637 57.3344 20.6357 57.5583 20.6811L57.9656 20.7635L57.9639 19.6993C57.963 19.1139 57.8668 18.3277 57.7504 17.9521C57.0756 15.7744 55.1821 14.0588 52.6442 13.3255C51.6844 13.0482 51.5308 13.0438 41.7262 13.0028C32.7057 12.9653 31.5853 12.9957 31.3367 12.5452C31.2833 12.4484 31.2702 12.3294 31.2276 12.1827C31.1458 11.9015 31.2126 11.7625 31.5817 11.4456L32.0364 11.055L42.0758 11.0992C50.9423 11.1383 52.3513 11.126 53.6167 11.546C53.919 11.6463 54.2131 11.7713 54.5987 11.9276C56.6169 12.7455 58.2614 14.1367 59.2196 15.8366C59.9237 17.086 60.169 18.0287 60.2818 19.9198L60.3796 21.5607L61.3863 22.1622C62.6632 22.9252 63.7816 24.0771 64.5077 25.3767C65.4329 27.0335 65.5499 27.7867 65.4852 31.6732C65.4309 34.9301 65.4155 35.079 65.029 36.0783C64.1246 38.4165 61.9023 40.4524 59.2714 41.3526C57.5336 41.9473 57.0331 41.9674 43.8651 41.9721C35.4058 41.9751 31.2185 42.0212 30.6829 42.1171C27.8673 42.6214 25.4622 44.7084 24.853 47.1763C24.7214 47.71 24.6442 48.8225 24.6426 50.2128L24.6401 52.407L29.9351 52.4092C35.9833 52.4118 36.5645 52.4728 38.5627 53.3142C39.5744 53.7402 40.0702 54.0594 41.0864 54.9384C42.4118 56.0847 43.013 56.9065 43.6079 58.3855C43.8978 59.1062 43.9489 59.542 44.0068 61.781L44.073 64.3496L43.6944 64.6749C43.2162 65.0856 42.6536 65.0904 42.1849 64.6877C41.8304 64.3833 41.8212 64.3266 41.8212 62.4215C41.8212 60.0597 41.6659 59.2515 40.9721 58.0039C40.3253 56.8409 39.0493 55.704 37.714 55.101C36.1519 54.3957 35.3759 54.3198 29.7129 54.3172L24.6401 54.3151V59.3938V64.4728L24.2498 64.7363C23.7321 65.0861 23.2262 65.0693 22.782 64.6877L22.4184 64.3756V59.3453V54.3151L15.8643 54.3129C8.46427 54.3104 8.01963 54.2705 6.05179 53.4348C4.01419 52.5694 2.5061 51.2696 1.51981 49.5287C0.612318 47.927 0.50301 47.257 0.500048 43.275C0.497086 39.2451 0.628759 38.439 1.56424 36.7613C2.0542 35.8825 2.40612 35.4749 3.44292 34.5843C4.47986 33.6939 4.95457 33.3917 5.97774 32.9709C7.16457 32.4828 9.01273 32.0548 9.93355 32.0548C10.2991 32.0548 10.4044 31.9521 10.841 31.171C11.7842 29.4833 13.67 28.0936 15.9014 27.4421C16.8591 27.1624 16.9338 27.1606 30.0496 27.0956L43.235 27.0303L44.2358 26.6071C44.7863 26.3744 45.5627 25.9038 45.9613 25.5614C46.6871 24.9382 47.4961 23.6966 47.6714 22.937L47.7647 22.5325L41.7196 22.4836C35.0342 22.4296 34.8686 22.4124 32.8604 21.5641C30.9497 20.757 29.3661 19.3929 28.4269 17.7451C27.4221 15.9825 27.4197 15.9635 27.3458 9.3048L27.279 3.2818L25.749 4.5748C24.3015 5.7981 24.1893 5.86565 23.6667 5.82774C22.9527 5.77597 22.4788 5.28255 22.6307 4.74933ZM43.0721 4.74933C43.139 4.51858 44.092 3.59726 45.7149 2.19423C48.2525 0.000636101 48.2532 0 48.9205 0C49.5871 0 49.5902 0.00203538 52.1379 2.19423C53.7856 3.61202 54.7245 4.51616 54.791 4.74933C54.9429 5.28255 54.469 5.77597 53.7551 5.82774C53.2321 5.86565 53.1202 5.79823 51.6591 4.56336L50.1156 3.2589V6.21278C50.1156 9.47753 50.0141 9.97019 49.3108 10.1218C48.7195 10.2493 48.2166 10.0803 47.9706 9.67177C47.7881 9.36865 47.7458 8.7301 47.7458 6.27867V3.2589L46.2023 4.56336C44.7412 5.79823 44.6293 5.86565 44.1063 5.82774C43.3911 5.77584 42.9177 5.28217 43.0721 4.74933ZM57.9656 24.6004C57.9656 23.0066 57.9354 22.7842 57.7064 22.6924C57.5639 22.6353 55.7805 22.5677 53.7434 22.5423L50.0395 22.496L49.8626 23.2951C49.3436 25.6405 47.1245 27.8102 44.358 28.6772C43.5469 28.9314 43.1717 28.94 30.3424 29.002L17.1603 29.0656L16.3301 29.3541C15.0424 29.8014 14.1428 30.3785 13.4215 31.22L12.7603 31.9912L19.4253 32.0548C25.7139 32.1148 26.108 32.1321 26.402 32.3607C26.8087 32.6769 26.8166 33.3656 26.4174 33.7084C26.1296 33.9556 25.9238 33.9628 19.1599 33.9628H12.1985L12.2003 37.9379C12.2021 42.1181 12.2646 42.6254 12.9105 43.7103C13.0825 43.9993 13.5339 44.5025 13.9135 44.8285C15.1298 45.8731 16.4845 46.2974 18.6111 46.2998C19.7956 46.3012 19.9469 46.3297 20.2774 46.6137C20.7408 47.0115 20.7408 47.4992 20.2774 47.8971C19.9425 48.1848 19.8033 48.2094 18.5074 48.2094C16.7286 48.2094 15.8147 48.0458 14.4202 47.4779C13.0663 46.9266 11.6019 45.717 10.9022 44.5723C10.064 43.2008 9.9814 42.6193 9.97903 38.0731L9.9768 33.9788L9.42138 34.0459C7.66268 34.2582 5.74964 35.1321 4.64116 36.2298C3.8726 36.9909 3.08256 38.3939 2.87861 39.3605C2.67184 40.3394 2.67184 46.0304 2.87861 47.0094C3.41596 49.5551 5.91701 51.7354 8.91024 52.2675C9.40879 52.3562 12.0165 52.407 16.0567 52.407H22.4184L22.4209 50.022C22.424 47.1447 22.5996 46.3025 23.5365 44.6727C24.0703 43.7437 24.4478 43.2922 25.2912 42.5739C26.5161 41.5304 27.5487 40.9621 29.1079 40.4729L30.1943 40.1321L43.5986 40.0638C55.2904 40.0043 57.0881 39.9699 57.6694 39.7948C60.6649 38.8925 62.4747 37.2156 63.0735 34.7875C63.3712 33.5805 63.3776 28.901 63.0831 27.7078C62.7895 26.5186 62.1772 25.5108 61.209 24.6236L60.3793 23.8633L60.2719 25.3626C60.1396 27.2061 59.9147 27.9959 59.13 29.3725C58.6597 30.1971 58.2608 30.6641 57.3911 31.4077C56.1275 32.488 55.0996 33.0559 53.4978 33.5584L52.4114 33.8992L41.0488 33.9355C29.79 33.9715 29.6836 33.9694 29.3849 33.7129C28.9386 33.3296 28.9819 32.6506 29.4737 32.3185C29.8603 32.0573 29.9642 32.0548 40.501 32.0548C47.6052 32.0548 51.3984 32.0088 51.9227 31.916C53.9451 31.5585 56.0938 30.1853 57.0552 28.6361C57.7756 27.4753 57.9656 26.6332 57.9656 24.6004ZM26.6346 47.6923C26.3911 47.2878 26.5402 46.7412 26.9708 46.4604C27.1615 46.336 30.0043 46.3019 40.0351 46.3035C51.9708 46.3057 53.6722 46.2891 55.1852 46.8148C55.4906 46.9209 55.7883 47.0491 56.1609 47.204C58.6646 48.2448 60.7285 50.514 61.2983 52.8523C61.5193 53.7593 61.6107 57.2721 61.4241 57.6896C61.2792 58.0138 60.4966 58.2563 60.0577 58.1129C59.3797 57.8916 59.3084 57.6746 59.3034 55.8159C59.2978 53.7598 59.148 53.0406 58.47 51.8133C57.5096 50.0752 55.3948 48.6939 53.1617 48.3463C52.5799 48.2557 48.0662 48.2094 39.8066 48.2094C32.9446 48.2094 27.2224 48.1738 27.0906 48.1304C26.9586 48.0869 26.7535 47.8897 26.6346 47.6923ZM59.2987 62.6061C59.2987 61.0087 59.3284 60.8041 59.6057 60.5015C59.9939 60.0776 60.6926 60.0516 61.1776 60.4429C61.5051 60.7071 61.5204 60.8012 61.5204 62.5476C61.5204 64.3188 61.5091 64.3852 61.1567 64.6877C60.9568 64.8595 60.6206 65 60.4095 65C60.1984 65 59.8622 64.8595 59.6623 64.6877C59.3111 64.3863 59.2987 64.3151 59.2987 62.6061Z" fill="#6378EB"/>
<path d="M6.38357 2.2591C3.93066 4.3681 3.75603 4.54936 3.75603 4.98668C3.75603 5.53658 4.15979 5.85127 4.86555 5.85127C5.23998 5.85127 5.56791 5.63478 6.79236 4.57926C7.60388 3.87965 8.31482 3.30724 8.37229 3.30724C8.42961 3.30724 8.49759 4.69539 8.52322 6.39188L8.56972 9.47652L9.00385 10.2369C9.55675 11.2056 10.5524 12.0607 11.682 12.537L12.5688 12.911H19.1437H25.7188L26.0097 12.5764C26.2264 12.3272 26.2746 12.14 26.1987 11.8427C26.0031 11.0786 25.8983 11.0668 19.2783 11.0637C13.8001 11.0612 13.26 11.0417 12.7086 10.8266C11.9783 10.5417 11.0651 9.65638 10.8658 9.03958C10.7851 8.79014 10.7187 7.38952 10.7183 5.92696L10.7174 3.26781L12.2632 4.55954C13.6364 5.7069 13.8682 5.85127 14.3368 5.85127C15.0066 5.85127 15.457 5.48366 15.457 4.93707C15.457 4.58193 15.132 4.25108 12.8333 2.26584C9.34703 -0.745147 9.87698 -0.744511 6.38357 2.2591Z" fill="#64FDFF"/>
</svg>
