<svg width="66" height="65" viewBox="0 0 66 65" fill="none" xmlns="http://www.w3.org/2000/svg">
<path d="M35.157 52.0573H31.1503H27.1435L26.8318 52.3692C26.428 52.7729 26.426 53.3312 26.8264 53.797L27.1329 54.1534L38.2049 54.1872C45.5935 54.2098 49.4404 54.177 49.7685 54.0886C50.3893 53.9214 51.0174 53.3981 51.2417 52.8613C51.3822 52.5251 51.415 50.8342 51.415 43.9214V35.3961L51.0437 35.0248C50.5619 34.543 50.1087 34.543 49.627 35.0248L49.2557 35.3961V38.2642V41.1323V43.2919V47.6746V52.0573H43.286H37.3163H35.157Z" fill="#64FDFF"/>
<path d="M58.2702 11.9732L55.8926 9.5954L53.5152 7.21742L51.9848 8.73905L54.3677 11.1198L56.7508 13.5007L58.2702 11.9732Z" fill="#64FDFF"/>
<path d="M61.4459 8.79774L59.068 6.41951L56.6902 4.04129L55.1593 5.68944C55.232 5.68944 56.3056 6.70471 57.5447 7.94559C58.784 9.18647 59.798 10.2602 59.798 10.3314L61.4459 8.79774Z" fill="#64FDFF"/>
<path fill-rule="evenodd" clip-rule="evenodd" d="M7.38699 0.15718C4.30662 0.848252 1.86221 3.08052 0.842272 6.13407L0.54531 7.02331L0.508857 31.9222C0.482946 49.6767 0.512794 57.0572 0.612882 57.6438C1.23996 61.3188 4.29341 64.3209 7.97571 64.8828C8.67455 64.9895 16.1522 65.018 36.0461 64.9898L63.1639 64.9514L63.672 64.6768C64.2708 64.353 64.8836 63.7301 65.2137 63.1094C65.4414 62.6813 65.4514 61.8335 65.4833 40.3118C65.4855 38.8228 65.4878 37.43 65.4899 36.1267C65.5189 18.3342 65.5206 17.2506 64.9896 16.6054C64.9552 16.5636 64.9185 16.5236 64.8795 16.481C64.8353 16.4329 64.7882 16.3814 64.7377 16.3203C64.5217 16.0581 64.0506 15.6921 63.6909 15.5069C63.0665 15.1855 62.9284 15.1677 60.6442 15.1146L58.2516 15.0591L61.6753 11.6128C64.8072 8.46046 65.1181 8.10832 65.3224 7.48229C65.5807 6.69048 65.5292 5.70608 65.1942 5.03686C64.899 4.44704 61.1173 0.64868 60.5121 0.33414C59.7947 -0.0387082 58.8306 -0.104767 58.0054 0.162389C57.3595 0.371489 56.9078 0.796549 49.9518 7.737L42.5824 15.0901H28.586H14.5894L14.5532 8.70653C14.5176 2.43924 14.512 2.31373 14.2424 1.81486C13.9181 1.21513 13.2949 0.602185 12.6753 0.273926C12.3039 0.077148 11.8964 0.033829 10.1985 0.0104545C8.83929 -0.00821972 7.90814 0.0403078 7.38699 0.15718ZM12.05 2.50378L12.4212 2.8751V24.8048L12.4213 27.2873C12.422 46.1691 12.4221 47.2734 11.9928 47.4783C11.9662 47.491 11.9378 47.5003 11.9078 47.5101C11.8873 47.5168 11.8661 47.5237 11.844 47.5322C11.7309 47.5755 11.143 47.6121 10.5374 47.6134C7.21006 47.6201 5.2097 48.2662 3.32809 49.9416L2.63675 50.557L2.67066 28.9172L2.70457 7.27738L3.05145 6.41113C3.76591 4.62692 5.06782 3.28733 6.72283 2.6331C7.7227 2.23776 8.24206 2.1618 10.0495 2.14643L11.6787 2.13245L12.05 2.50378ZM61.35 4.00622C62.3886 5.03673 63.2711 6.0097 63.3109 6.16824C63.4259 6.62684 63.1475 7.11097 62.2668 7.98408L61.4459 8.79774L59.798 10.3314C59.798 10.4028 59.4543 10.8015 59.0341 11.2173L58.2702 11.9732L56.7508 13.5007L50.844 19.4082L44.9374 25.3158L43.1623 26.5868L42.7478 26.6692C41.8577 26.8463 39.2324 27.0616 38.9201 26.9832C38.44 26.8628 38.3993 26.4924 38.6343 24.3847C38.7486 23.3601 38.8417 22.4651 38.8412 22.396C38.8412 22.3939 38.8421 22.3927 38.8438 22.3924L40.175 20.5527L46.0799 14.6458L51.9848 8.73905L53.5152 7.21742L54.271 6.45343C54.6868 6.0332 55.0865 5.68944 55.1593 5.68944L56.6902 4.04129L57.5137 3.20247C59.0036 1.68491 59.012 1.68669 61.35 4.00622ZM38.7935 18.8949C37.8366 19.8726 37.2163 20.6194 37.0513 20.9921C36.7663 21.6367 36.4703 23.5925 36.3445 25.6633L36.2617 27.0267L26.8071 27.0607L17.3527 27.0949L17.0463 27.4514C16.6458 27.9171 16.6478 28.4754 17.0516 28.8791C17.354 29.1817 17.4187 29.191 19.2109 29.191H21.0583V43.9334L21.0583 44.9858C21.058 58.1726 21.058 59.1772 21.482 59.4103C21.517 59.4296 21.5549 59.4435 21.5958 59.4587C21.6015 59.4607 21.6071 59.4628 21.6129 59.465C21.6203 59.4677 21.6279 59.4706 21.6356 59.4735C22.0775 59.6431 22.599 59.5475 22.9057 59.2405L23.2176 58.9288V51.1103V43.2919H29.1873H35.157V47.6746V52.0573H37.3163V47.6746V43.2919H43.286H49.2557V41.1323H36.2354H23.215L23.248 35.1934L23.2811 29.2545L32.2356 29.1803C41.8126 29.101 43.1902 29.0164 44.5326 28.4255C44.9989 28.2202 46.2962 26.9963 50.5278 22.7701L55.928 17.3767H59.3096C62.4498 17.3767 62.7126 17.394 62.991 17.6196L63.2909 17.8623L63.3237 39.9864L63.3566 62.1105L62.9842 62.483L62.6119 62.8553L35.7066 62.8532C13.1022 62.8513 8.6668 62.8224 7.96021 62.6727C4.42487 61.9231 2.0258 58.3084 2.82092 54.9287C3.32568 52.7836 4.69554 51.1955 6.83257 50.2781C7.44237 50.0163 7.81364 49.9675 9.75393 49.894C12.3388 49.7964 13.0011 49.6008 13.7633 48.7102C13.8005 48.6667 13.836 48.6267 13.8699 48.5884C13.934 48.516 13.9924 48.4501 14.0455 48.3802C14.5821 47.6739 14.582 46.5597 14.5807 34.1852L14.5805 32.1532V17.3767H27.43H40.2794L38.7935 18.8949Z" fill="#6378EB"/>
<path d="M44.9374 25.3158L42.5563 22.9342L40.175 20.5527L38.8438 22.3924C38.8565 22.3901 38.915 22.4343 39.0114 22.5175C39.3404 22.8012 40.11 23.5383 41.0014 24.4285L43.1623 26.5868L44.9374 25.3158Z" fill="#64FDFF"/>
</svg>
