<svg width="70" height="65" viewBox="0 0 70 65" fill="none" xmlns="http://www.w3.org/2000/svg">
<path fill-rule="evenodd" clip-rule="evenodd" d="M36.077 28.5987L36.7429 28.3225C37.6043 27.9654 38.4939 27.1405 38.982 26.2459C39.2938 25.6744 39.3805 25.3239 39.4245 24.4559C39.5232 22.5068 38.6635 21.0402 36.9203 20.1841C36.1448 19.8033 35.8825 19.7431 34.9967 19.7431C34.1108 19.7431 33.8486 19.8033 33.073 20.1841C31.3298 21.0402 30.4701 22.5068 30.5689 24.4559C30.6129 25.3239 30.6996 25.6744 31.0114 26.2459C31.4994 27.1405 32.3891 27.9654 33.2505 28.3225L33.9164 28.5987C34.3327 28.7287 35.3478 28.9107 36.077 28.5987ZM36.0251 26.4192C37.7216 25.6507 37.9233 23.1888 36.3737 22.1659C35.1289 21.3442 33.489 21.7631 32.8185 23.0743C32.4157 23.8617 32.5075 24.984 33.0306 25.6681C33.7424 26.599 34.9562 26.9034 36.0251 26.4192Z" fill="#64FDFF"/>
<path fill-rule="evenodd" clip-rule="evenodd" d="M34.2411 0.288838C34.0112 0.542081 33.9794 0.838294 33.9412 3.08394C33.8925 5.95716 34.0074 6.5807 34.6253 6.79731C34.8642 6.88096 35.1292 6.88096 35.368 6.79731C35.986 6.5807 36.1009 5.95716 36.0521 3.08394C36.0139 0.838294 35.9822 0.542081 35.7522 0.288838C35.4026 -0.0962794 34.5907 -0.0962794 34.2411 0.288838ZM17.984 6.91396C17.5925 7.11157 17.3685 7.64419 17.4838 8.10272C17.5284 8.27999 18.4381 9.28865 19.5055 10.3443C21.1535 11.9741 21.5085 12.2636 21.8596 12.2636C22.3693 12.2636 22.8022 11.916 22.9224 11.4101C23.0066 11.056 22.8573 10.8726 20.8641 8.8844C19.6821 7.70548 18.626 6.74167 18.5171 6.74275C18.4083 6.74383 18.1683 6.82088 17.984 6.91396ZM49.1468 8.86703C47.1369 10.8718 46.9867 11.0558 47.071 11.4101C47.1917 11.9178 47.6245 12.2636 48.1393 12.2636C48.4989 12.2636 48.8408 11.9816 50.555 10.2717C52.2692 8.56179 52.5518 8.22072 52.5518 7.862C52.5518 7.34851 52.2052 6.91679 51.6962 6.79636C51.3411 6.71231 51.1566 6.8621 49.1468 8.86703ZM32.0933 9.6999C26.5639 10.898 22.2982 14.8274 20.753 20.1464C19.9477 22.9182 19.998 25.9268 20.8985 28.8658C20.9419 29.0075 20.8998 29.1015 20.7928 29.1016C20.695 29.1016 20.2243 29.2861 19.7468 29.5114C17.0172 30.7994 14.7271 33.1041 13.505 35.7925C12.7725 37.4041 12.4212 39.0537 12.4197 40.8881C12.419 41.7771 12.4771 42.7905 12.5486 43.14C12.6201 43.4896 12.6464 43.8079 12.6068 43.8472C12.5674 43.8867 11.8562 43.9189 11.0262 43.9189C9.179 43.9189 7.8367 44.2259 6.28172 45.0042C4.16754 46.0623 2.64916 47.6003 1.56843 49.7785C0.706746 51.5154 0.5 52.4145 0.5 54.4258C0.5 56.437 0.706746 57.3362 1.56843 59.073C2.64956 61.2519 4.21859 62.8406 6.30076 63.8643C8.4356 64.9139 8.88555 64.9756 14.5002 64.9885C19.4326 65 19.4604 64.9984 19.7556 64.7045C20.1149 64.3464 20.1449 63.6912 19.8186 63.3316C19.5988 63.0891 19.2925 63.0702 14.6308 63.01C9.20708 62.9401 8.89757 62.9009 7.25455 62.0748C2.38097 59.6244 0.96035 53.5596 4.2464 49.2327C5.23489 47.9312 6.99919 46.7036 8.59643 46.206C8.90203 46.1108 10.3001 46.0018 11.8156 45.9549C14.4206 45.8744 14.5019 45.8633 14.7528 45.5541C15.0793 45.1518 15.0763 44.8853 14.7311 43.57C14.3705 42.1956 14.3425 39.9435 14.6693 38.5981C14.7953 38.0795 15.205 37.0202 15.5796 36.2442C16.1862 34.9872 16.4027 34.6916 17.5601 33.5389C18.6912 32.4124 19.043 32.1532 20.2772 31.538C21.5562 30.9005 21.7081 30.8539 21.8302 31.0621C22.5316 32.2595 23.406 33.4281 24.4455 34.557C25.8033 36.0316 26.8742 37.5383 27.6118 39.0115L28.0885 39.9637L27.5853 40.4364C26.8103 41.1645 26.5567 41.7934 26.5567 42.9878C26.5567 43.9041 26.6015 44.082 26.99 44.7053L27.4233 45.4006L26.998 46.0832C25.7809 48.0361 26.8397 50.6123 29.1084 51.2175L29.7091 51.3778L29.8729 52.262C29.9631 52.7482 30.1552 53.4664 30.3 53.858C30.6503 54.805 31.7758 56.0075 32.7917 56.5199C33.5141 56.8842 33.6954 56.917 34.9967 56.9174C36.2397 56.9178 36.4978 56.8763 37.089 56.581L37.7634 56.2443L38.7816 57.2672C39.896 58.3871 41.3508 59.2174 42.8965 59.616C43.9583 59.8899 46.1642 59.8868 47.2178 59.61C49.8402 58.921 51.9524 57.1791 53.1275 54.7365C53.7264 53.4917 53.8124 52.8271 53.4294 52.4049C53.2342 52.1898 53.0438 52.1324 52.6264 52.163C52.6042 52.1647 52.5828 52.1661 52.5624 52.1675C52.4206 52.1773 52.3184 52.1844 52.2297 52.2226C52.001 52.3209 51.8613 52.6259 51.3614 53.7162C51.3334 53.7774 51.3042 53.8411 51.2738 53.9073C50.4271 55.7526 48.6137 57.2259 46.6474 57.6655C45.8059 57.8536 44.067 57.8462 43.3416 57.6512C39.4349 56.6019 37.2073 52.4711 38.5105 48.6925C39.2426 46.5701 41.1387 44.8233 43.3277 44.2546C44.9028 43.8454 46.86 44.0725 48.2879 44.8303C49.373 45.4062 50.7728 46.9029 51.404 48.1621C51.9356 49.2227 51.9528 49.2404 52.4913 49.2798C52.9063 49.3103 53.0993 49.2529 53.2902 49.0423C53.6465 48.6497 53.604 48.1326 53.1341 47.139C51.5964 43.8881 48.2757 41.8988 44.6501 42.057C43.41 42.111 43.3828 42.1057 43.3039 41.7923C43.1876 41.3302 42.5848 40.4646 42.2077 40.2181L41.8836 40.0062L42.3719 39.0327C43.122 37.5375 43.9247 36.4034 45.4131 34.7359C47.3999 32.5098 48.3964 30.927 48.9814 29.0678C49.1155 28.6419 49.2924 28.2933 49.3745 28.2933C49.4566 28.2933 50.0204 28.6897 50.6274 29.1741C54.7728 32.4826 56.5719 38.2006 55.0284 43.1615C54.536 44.7444 54.5017 45.1427 54.824 45.5401C55.091 45.869 55.1201 45.8729 57.9751 45.954C61.021 46.0407 61.4058 46.1074 62.7473 46.7813C66.978 48.9068 68.7169 53.9216 66.6739 58.1052C65.5603 60.3857 63.666 61.9634 61.1268 62.7251C60.3659 62.9533 59.1901 62.9706 41.8162 63.0088L23.3158 63.0495L23.0794 63.3325C22.7517 63.7249 22.7756 64.4258 23.1274 64.7434C23.4041 64.9931 23.908 65 41.8641 65H60.3166L61.4644 64.6983C63.733 64.1019 65.8623 62.7523 67.2106 61.0561C67.9658 60.1062 68.9478 58.1553 69.2599 56.9851C69.58 55.7843 69.58 53.0673 69.2599 51.8664C68.9478 50.6962 67.9658 48.7453 67.2106 47.7954C65.8855 46.1284 63.7058 44.7421 61.5441 44.1911C60.7448 43.9875 60.0395 43.9189 58.742 43.9189C57.7884 43.9189 57.0081 43.8924 57.0081 43.8599C57.0081 43.8274 57.0991 43.4096 57.2103 42.9314C57.9446 39.7726 57.6392 36.4011 56.3477 33.413C55.2533 30.8808 53.0924 28.293 50.8317 26.8072L49.7192 26.0761L49.8038 24.9781C49.9071 23.6385 49.6699 21.6311 49.225 20.0773C48.8551 18.7854 47.7156 16.3819 47.2205 15.8488C46.7677 15.3615 46.0601 15.3627 45.6747 15.8514C45.5207 16.0466 45.3947 16.281 45.3947 16.3722C45.3947 16.4634 45.7828 17.2962 46.2574 18.2231C47.4079 20.4709 47.7387 21.8018 47.7396 24.1848C47.7406 27.7098 46.6626 30.3797 44.1291 33.1263C42.3234 35.0838 40.7986 37.3116 40.2074 38.8557L39.9709 39.4737H38.0239H36.077V36.3275V33.1813L36.9885 32.9608C40.0702 32.215 42.6106 29.8686 43.6056 26.849C44.0905 25.3774 44.1137 23.1611 43.6596 21.6928C43.182 20.1487 42.5119 19.0622 41.2879 17.8474C39.5108 16.0838 37.4539 15.2271 34.9967 15.2271C32.5395 15.2271 30.4826 16.0838 28.7055 17.8474C27.4815 19.0622 26.8114 20.1487 26.3337 21.6928C25.8758 23.1737 25.903 25.3751 26.3978 26.8789C26.9005 28.4068 27.6089 29.5134 28.8277 30.675C30.0089 31.8006 31.4177 32.5708 33.0048 32.9586L33.9164 33.1813V36.3275V39.4737L31.992 39.4723L30.0677 39.4711L29.5056 38.2864C28.7219 36.6351 27.5367 34.9362 26.0109 33.2773C23.8161 30.8912 22.7744 28.8421 22.3498 26.0757C21.608 21.2426 23.8413 16.2689 27.9718 13.5544C29.1514 12.7792 30.0322 12.377 31.6019 11.8968C32.6489 11.5766 32.99 11.5391 34.9292 11.5313C36.7683 11.5241 37.2549 11.5678 38.1997 11.8257C39.5838 12.2034 40.5966 12.6465 41.8345 13.4158C42.9743 14.1242 43.4857 14.1846 43.8994 13.6598C44.0534 13.4646 44.1794 13.1824 44.1794 13.0327C44.1794 12.6052 43.248 11.8288 41.9049 11.1368C39.5205 9.90842 38.1704 9.56708 35.4018 9.49286C33.678 9.44652 33.0942 9.48316 32.0933 9.6999ZM36.667 17.4507C37.9459 17.7831 38.9174 18.3341 39.8708 19.2682C42.7028 22.0429 42.67 26.5292 39.798 29.2091C38.8945 30.0522 37.6347 30.7569 36.6509 30.9694L36.077 31.0934V29.846V28.5987C35.3478 28.9107 34.3327 28.7287 33.9164 28.5987V29.846V31.0934L33.3424 30.9694C32.3587 30.7569 31.0989 30.0522 30.1953 29.2091C29.1225 28.208 28.3557 26.7786 28.1038 25.3093C27.5112 21.8528 29.7785 18.3926 33.2449 17.4634C34.2156 17.2032 35.6932 17.1978 36.667 17.4507ZM10.886 23.64C10.4607 24.0641 10.4527 24.6486 10.867 25.037C11.167 25.3181 11.2911 25.3298 13.962 25.3298C15.4922 25.3298 16.8471 25.2905 16.9728 25.2423C17.3224 25.1085 17.5698 24.4076 17.4194 23.9771C17.2107 23.3801 16.839 23.3093 13.9179 23.3093C11.2308 23.3093 11.2158 23.3109 10.886 23.64ZM52.9979 23.4705C52.3801 23.7682 52.3959 25.0032 53.0205 25.2423C53.1463 25.2905 54.5096 25.3298 56.0503 25.3298C58.8039 25.3298 58.8565 25.3246 59.1453 25.0181C59.5347 24.6044 59.5195 24.0511 59.1073 23.64C58.7766 23.3099 58.7705 23.3093 56.0352 23.3184C54.3981 23.3238 53.175 23.3851 52.9979 23.4705ZM41.0194 41.9522C41.272 42.2041 41.4786 42.4955 41.4786 42.5999C41.4786 42.7041 41.2393 42.8947 40.9469 43.0234C40.6544 43.1522 40.062 43.531 39.6304 43.8653L38.8456 44.4732L34.1866 44.4319C29.1555 44.387 29.0952 44.3785 28.7187 43.6522C28.378 42.995 28.4571 42.4677 28.9739 41.9522L29.433 41.4942H34.9967H40.5603L41.0194 41.9522ZM36.9538 47.1538C36.765 47.5253 36.5292 48.1466 36.4297 48.5345L36.2489 49.2397L32.8433 49.2757L29.4378 49.3118L28.9762 48.8513C28.6463 48.5223 28.5148 48.2701 28.5148 47.9667C28.5148 47.4648 28.8244 46.8165 29.1562 46.6237C29.3016 46.5393 30.9124 46.4849 33.3447 46.4823L37.2969 46.4783L36.9538 47.1538ZM36.1453 51.9674C36.192 52.3194 36.3514 53.0228 36.4995 53.5308C36.6475 54.0386 36.7498 54.4705 36.7267 54.4903C36.4217 54.7515 35.6759 54.9646 35.0666 54.9646C33.8515 54.9646 32.8425 54.3941 32.3321 53.4186C32.155 53.0804 31.7764 51.7619 31.7606 51.4286C31.7579 51.373 32.7242 51.3276 33.9081 51.3276H36.0604L36.1453 51.9674ZM11.7233 51.8434C11.4026 52.1968 11.4354 52.9788 11.784 53.2936C12.054 53.5373 12.3516 53.5502 17.7116 53.5502C23.0716 53.5502 23.3692 53.5373 23.6392 53.2936C24.0053 52.9632 24.0262 52.1357 23.6764 51.8199C23.4548 51.6199 22.8411 51.597 17.6881 51.597C12.2975 51.597 11.9331 51.6121 11.7233 51.8434ZM11.7233 55.3457C11.4026 55.6991 11.4354 56.4811 11.784 56.7959C12.054 57.0396 12.3516 57.0525 17.7116 57.0525C23.0716 57.0525 23.3692 57.0396 23.6392 56.7959C24.0053 56.4655 24.0262 55.638 23.6764 55.3222C23.4548 55.1222 22.8411 55.0993 17.6881 55.0993C12.2975 55.0993 11.9331 55.1144 11.7233 55.3457Z" fill="#6378EB"/>
<path d="M46.3542 49.9088L44.5064 51.7229L43.2055 50.4252C42.0971 49.3196 41.8398 49.1275 41.4676 49.1275C40.883 49.1275 40.3403 49.7264 40.4637 50.2353C40.5126 50.4368 41.3083 51.3483 42.3285 52.3715C43.4697 53.5161 43.9928 54.1183 44.5333 54.1342C45.123 54.1516 45.7332 53.4709 47.1895 52.0348C48.3729 50.8679 49.4185 49.7357 49.513 49.5185C49.7172 49.0499 49.5531 48.4308 49.1706 48.2266C48.5231 47.8809 48.2592 48.0385 46.3542 49.9088Z" fill="#64FDFF"/>
</svg>
