<svg width="62" height="62" viewBox="0 0 62 62" fill="none" xmlns="http://www.w3.org/2000/svg">
<path d="M54.6704 4.90168C54.2891 5.35398 54.2819 5.9772 54.6533 6.39129C54.8731 6.63632 55.0817 6.70354 55.6217 6.70354H56.3099V26.3811V46.0586H33.2596H10.2091L9.95833 46.4371C9.82033 46.6452 9.7074 46.9007 9.7074 47.0049C9.7074 47.3846 9.98338 47.898 10.2711 48.0537C10.484 48.1687 17.0644 48.2131 33.9282 48.2131C58.8717 48.2131 57.8303 48.2412 58.0504 47.5603C58.0917 47.4324 58.1256 37.8613 58.1256 26.291V5.25415L57.8284 4.90168C57.5504 4.57162 57.4491 4.54907 56.2494 4.54907C55.0497 4.54907 54.9484 4.57162 54.6704 4.90168Z" fill="#003AA6"/>
<path fill-rule="evenodd" clip-rule="evenodd" d="M2.87389 0.11401C1.73231 0.433159 0.549215 1.78358 0.204598 3.16072C-0.0675123 4.24758 -0.0684807 48.5153 0.203388 49.5873C0.490144 50.7179 1.17139 51.6519 2.13431 52.2348L2.96468 52.7375L12.5699 52.7776C21.2958 52.8139 22.1751 52.8387 22.1751 53.0483C22.1751 53.3574 21.5776 59.1139 21.503 59.5241C21.4455 59.8402 21.4078 59.8472 19.7787 59.8472C17.9671 59.8472 17.6709 59.9508 17.5261 60.6351C17.4376 61.0535 17.7089 61.7779 18.0045 61.9125C18.2606 62.0292 43.7622 62.0292 44.0184 61.9125C44.3139 61.7779 44.5852 61.0535 44.4967 60.6351C44.352 59.9508 44.0558 59.8472 42.2441 59.8472C40.615 59.8472 40.5773 59.8402 40.5198 59.5241C40.4452 59.1139 39.8477 53.3574 39.8477 53.0483C39.8477 52.8387 40.727 52.8139 49.4529 52.7776L59.0581 52.7375L59.8885 52.2348C60.486 51.8731 60.8437 51.536 61.1636 51.0331C61.2222 50.941 61.2767 50.8627 61.3275 50.7899C61.374 50.7231 61.4173 50.6609 61.4577 50.5968C62.0029 49.7308 62.0026 48.5215 61.9996 30.9684C61.9993 29.5518 61.9991 28.0287 61.9991 26.3907C61.9991 6.52056 61.9772 3.79558 61.8123 3.13659C61.5495 2.08679 60.758 0.987433 59.8823 0.455996L59.1717 0.0246708L31.2621 0.00240808C14.3715 -0.0110933 3.16356 0.0330017 2.87389 0.11401ZM59.1052 2.43682C59.4842 2.67094 59.7175 2.94987 59.911 3.40088L60.1834 4.03544V26.3661C60.1834 48.6583 60.1829 48.698 59.9327 49.3114C59.7855 49.6721 59.4981 50.0615 59.2367 50.2544L58.7914 50.583H31.0114H3.23146L2.78614 50.2544C2.52468 50.0615 2.23732 49.6721 2.09012 49.3114C1.83992 48.698 1.83944 48.6583 1.83944 26.3661V4.03544L2.11179 3.40088C2.30534 2.94987 2.5386 2.67094 2.91759 2.43682L3.45116 2.10733H31.0114H58.5717L59.1052 2.43682ZM4.19438 4.90168L3.89721 5.25415V26.3746C3.89721 47.2127 3.90036 47.4987 4.13628 47.7786C4.47097 48.1757 4.81801 48.2493 6.08305 48.1917C7.07018 48.1466 7.21144 48.1054 7.41831 47.8022C7.73157 47.343 7.71136 46.7521 7.36952 46.3709C7.14971 46.1258 6.94114 46.0586 6.40116 46.0586H5.7129V26.3811V6.70354H28.717H51.7212L52.0318 6.33498C52.2824 6.03767 52.3281 5.87795 52.2681 5.5091C52.2272 5.2576 52.0788 4.93874 51.9385 4.80042C51.6975 4.563 50.3818 4.54907 28.0874 4.54907H4.49143L4.19438 4.90168ZM27.6253 53.8147C27.9929 55.5321 28.4743 56.309 29.6053 57.0098C30.3247 57.4556 31.712 57.4447 32.464 56.9871C33.5364 56.3346 34.0323 55.5209 34.3975 53.8147L34.5974 52.8811L36.288 52.8415L37.9788 52.8018L38.3439 56.3245L38.7088 59.8472H31.0114H23.314L23.679 56.3245L24.044 52.8018L25.7348 52.8415L27.4254 52.8811L27.6253 53.8147ZM32.6581 53.2731C32.4658 54.4142 31.7692 55.251 31.0114 55.251C30.2537 55.251 29.557 54.4142 29.3647 53.2731L29.2865 52.8093H31.0114H32.7363L32.6581 53.2731Z" fill="#003AA6"/>
<path fill-rule="evenodd" clip-rule="evenodd" d="M17.009 11.6142C16.864 11.6973 16.6845 11.9396 16.6101 12.1525C16.3665 12.8504 16.6088 13.2102 18.1455 14.4318L19.5733 15.5669L21.2541 22.5898C22.1785 26.4525 23.0356 29.8254 23.1588 30.0852L23.3829 30.5575L22.6984 32.1679C21.884 34.0835 21.8109 34.7643 22.3211 35.6792C22.6271 36.2276 22.6306 36.2608 22.4638 37.0207C22.331 37.626 22.3217 37.9657 22.4223 38.5434C22.9599 41.6315 26.3959 42.235 27.6655 39.4643C27.9721 38.7953 28.0061 38.5961 27.9641 37.7159L27.9169 36.7226H31.9816H36.0463L35.9962 37.6564C35.9536 38.45 35.9945 38.7077 36.2687 39.3727C37.4061 42.1314 40.7622 41.7509 41.4943 38.7802C41.6792 38.0305 41.6827 37.861 41.528 37.1516C41.3878 36.509 41.3838 36.2924 41.5067 36.0025C41.6736 35.6088 41.6123 35.2041 41.3278 34.8194C41.1538 34.5845 40.579 34.5681 32.5057 34.5681C26.7164 34.5681 23.8697 34.5198 23.8697 34.4216C23.8697 34.341 24.1095 33.7084 24.4026 33.016L24.9355 31.7571L25.4012 31.8042C26.137 31.8789 38.9771 30.0184 39.6662 29.7373C40.4988 29.3976 41.5541 28.1413 41.823 27.1696C41.9319 26.7755 42.3759 24.3238 42.8095 21.7217C43.541 17.3321 43.5844 16.9662 43.4111 16.6522C43.3083 16.466 43.1046 16.2553 42.9582 16.1839C42.812 16.1126 38.1985 15.8234 32.706 15.5415C21.6386 14.9734 21.2085 14.942 21.2027 14.6995C21.2004 14.6072 21.1033 14.3962 20.9867 14.2307C20.6912 13.8112 17.6778 11.4412 17.455 11.4532C17.3548 11.4585 17.1541 11.5309 17.009 11.6142ZM26.0464 21.6771C26.0385 21.288 25.4729 17.4631 25.4126 17.3916C25.3715 17.3429 24.5501 17.2681 23.5872 17.2253L21.8363 17.1476L22.3925 19.4662L22.9486 21.7849H24.4986C25.3511 21.7849 26.0476 21.7363 26.0464 21.6771ZM31.1325 17.6621L30.1338 17.5699C28.4826 17.4173 27.3803 17.4516 27.3786 17.6555C27.3777 17.7543 27.4979 18.7238 27.6456 19.8099L27.9141 21.7849H29.5233H31.1325V19.7235V17.6621ZM36.3165 19.8935C36.3944 18.8533 36.4395 17.9801 36.4166 17.9529C36.3937 17.9258 35.6039 17.8619 34.6615 17.811L32.9481 17.7185V19.7516V21.7849H34.5614H36.1747L36.3165 19.8935ZM40.9963 21.4617C41.2105 20.377 41.5376 18.2843 41.5 18.2396C41.4756 18.2104 40.7477 18.1465 39.8827 18.0974L38.3101 18.0081L38.237 18.7116C38.1968 19.0984 38.1272 19.9482 38.0824 20.5999L38.0008 21.7849H39.4667C40.8873 21.7849 40.9345 21.7748 40.9963 21.4617ZM27.1123 29.4716C27.1607 29.4199 26.4154 24.2065 26.3387 24.059C26.2612 23.9102 23.5055 23.8987 23.5096 24.0471C23.5112 24.1062 23.7806 25.2536 24.1083 26.5965C24.8513 29.6418 24.9334 29.759 26.2187 29.6091C26.6911 29.5539 27.0932 29.492 27.1123 29.4716ZM31.0719 28.8946V26.4529V24.0112L29.6496 23.9707C28.8673 23.9484 28.228 23.9807 28.2288 24.0425C28.2317 24.2767 28.9446 29.1473 28.9826 29.1922C29.0045 29.2182 29.4835 29.1619 30.0472 29.0671L31.0719 28.8946ZM35.7765 26.9885C35.8202 26.2989 35.8902 25.3308 35.9319 24.837L36.0077 23.9393H34.4779H32.9481V26.3219V28.7045L33.4021 28.6242C33.6518 28.5801 34.1828 28.5044 34.5823 28.4561C35.1326 28.3896 35.4097 28.3716 35.5581 28.2241C35.7246 28.0586 35.7294 27.7304 35.7765 26.9885ZM40.3233 25.4926C40.4042 24.9937 40.4996 24.4403 40.5353 24.2625C40.5997 23.9421 40.5888 23.9393 39.2518 23.9393C38.2809 23.9393 37.8891 23.9896 37.8524 24.1189C37.7971 24.3141 37.5479 27.2592 37.5479 27.7189C37.5479 27.9755 37.6089 27.9938 38.2186 27.9191C39.4578 27.7673 40.0688 27.063 40.3233 25.4926ZM25.4164 39.065C26.172 38.7491 26.4308 37.6383 25.8895 37.0348C25.1014 36.1564 23.8644 37.178 24.2815 38.363C24.4601 38.8698 25.0341 39.2249 25.4164 39.065ZM39.6781 38.4186C39.8913 37.9295 39.7634 37.2554 39.3943 36.9229C39.2775 36.8178 38.9872 36.7296 38.7491 36.7272C37.598 36.7149 37.4318 38.6003 38.5431 39.065C38.8901 39.2101 39.4795 38.8746 39.6781 38.4186Z" fill="#BAFEFF"/>
</svg>
